<svg width="14" height="15" viewBox="0 0 14 15" fill="none" xmlns="http://www.w3.org/2000/svg">
<path d="M12.5493 12.1688L10.1199 14.775C10.0499 14.85 9.97129 14.9063 9.8839 14.9438C9.7965 14.9813 9.7062 15 9.61298 15H8.38951C8.19143 15 8.02538 14.9281 7.89139 14.7844C7.75739 14.6406 7.69039 14.4625 7.69039 14.25V12.9375C7.69039 12.8375 7.70787 12.7406 7.74282 12.6469C7.77778 12.5531 7.83021 12.4688 7.90013 12.3938L10.3296 9.7875L12.5493 12.1688ZM13.2834 11.3813L11.0637 9L11.5705 8.45625C11.7104 8.30625 11.8735 8.23125 12.0599 8.23125C12.2464 8.23125 12.4095 8.30625 12.5493 8.45625L13.7903 9.7875C13.9301 9.9375 14 10.1125 14 10.3125C14 10.5125 13.9301 10.6875 13.7903 10.8375L13.2834 11.3813ZM4.89388 5.25C4.6958 5.25 4.52975 5.17813 4.39576 5.03438C4.26176 4.89062 4.19476 4.7125 4.19476 4.5C4.19476 4.2875 4.26176 4.10938 4.39576 3.96563C4.52975 3.82188 4.6958 3.75 4.89388 3.75H9.78777C9.98585 3.75 10.1519 3.82188 10.2859 3.96563C10.4199 4.10938 10.4869 4.2875 10.4869 4.5C10.4869 4.7125 10.4199 4.89062 10.2859 5.03438C10.1519 5.17813 9.98585 5.25 9.78777 5.25H4.89388ZM4.89388 7.5C4.6958 7.5 4.52975 7.42813 4.39576 7.28438C4.26176 7.14063 4.19476 6.9625 4.19476 6.75C4.19476 6.5375 4.26176 6.35938 4.39576 6.21563C4.52975 6.07188 4.6958 6 4.89388 6H9.78777C9.98585 6 10.1519 6.07188 10.2859 6.21563C10.4199 6.35938 10.4869 6.5375 10.4869 6.75C10.4869 6.9625 10.4199 7.14063 10.2859 7.28438C10.1519 7.42813 9.98585 7.5 9.78777 7.5H4.89388ZM2.09738 15C1.51477 15 1.01956 14.7813 0.611735 14.3438C0.203912 13.9063 0 13.375 0 12.75V12C0 11.5875 0.136912 11.2344 0.410737 10.9406C0.684561 10.6469 1.01373 10.5 1.39825 10.5H2.09738V1.5C2.09738 1.0875 2.23429 0.734375 2.50812 0.440625C2.78194 0.146875 3.11111 0 3.49563 0H11.186C11.5705 0 11.8997 0.146875 12.1735 0.440625C12.4474 0.734375 12.5843 1.0875 12.5843 1.5V5.25L11.186 6.75V1.5H3.49563V10.5H7.69039L6.69413 11.5688C6.56596 11.7063 6.46692 11.8656 6.397 12.0469C6.32709 12.2281 6.29214 12.4188 6.29214 12.6188V15H2.09738Z" fill="#4F200D"/>
</svg>
