<svg width="14" height="15" viewBox="0 0 14 15" fill="none" xmlns="http://www.w3.org/2000/svg">
<path d="M11.7198 13.0688L10.676 14.1188C10.5417 14.2563 10.3738 14.3281 10.1724 14.3344C9.97096 14.3406 9.797 14.2688 9.6505 14.1188C9.51621 13.9813 9.44907 13.8063 9.44907 13.5938C9.44907 13.3813 9.51621 13.2063 9.6505 13.0688L10.676 12L9.6505 10.9313C9.51621 10.7938 9.44601 10.6219 9.43991 10.4156C9.43381 10.2094 9.504 10.0312 9.6505 9.88125C9.78479 9.74375 9.9557 9.675 10.1632 9.675C10.3708 9.675 10.5417 9.74375 10.676 9.88125L11.7198 10.9313L12.7636 9.88125C12.8979 9.74375 13.0657 9.67188 13.2671 9.66563C13.4686 9.65938 13.6425 9.73125 13.789 9.88125C13.9233 10.0188 13.9905 10.1938 13.9905 10.4062C13.9905 10.6188 13.9233 10.7938 13.789 10.9313L12.7636 12L13.789 13.0688C13.9233 13.2063 13.9935 13.3781 13.9996 13.5844C14.0057 13.7906 13.9355 13.9688 13.789 14.1188C13.6548 14.2563 13.4838 14.325 13.2763 14.325C13.0688 14.325 12.8979 14.2563 12.7636 14.1188L11.7198 13.0688ZM5.1274 5.25C4.91986 5.25 4.7459 5.17813 4.6055 5.03438C4.46511 4.89062 4.39491 4.7125 4.39491 4.5C4.39491 4.2875 4.46511 4.10938 4.6055 3.96563C4.7459 3.82188 4.91986 3.75 5.1274 3.75H10.2548C10.4623 3.75 10.6363 3.82188 10.7767 3.96563C10.9171 4.10938 10.9873 4.2875 10.9873 4.5C10.9873 4.7125 10.9171 4.89062 10.7767 5.03438C10.6363 5.17813 10.4623 5.25 10.2548 5.25H5.1274ZM5.1274 7.5C4.91986 7.5 4.7459 7.42813 4.6055 7.28438C4.46511 7.14063 4.39491 6.9625 4.39491 6.75C4.39491 6.5375 4.46511 6.35938 4.6055 6.21563C4.7459 6.07188 4.91986 6 5.1274 6H10.2548C10.4623 6 10.6363 6.07188 10.7767 6.21563C10.9171 6.35938 10.9873 6.5375 10.9873 6.75C10.9873 6.9625 10.9171 7.14063 10.7767 7.28438C10.6363 7.42813 10.4623 7.5 10.2548 7.5H5.1274ZM2.19746 15C1.58705 15 1.06821 14.7813 0.640925 14.3438C0.213642 13.9063 0 13.375 0 12.75V12C0 11.5875 0.143445 11.2344 0.430335 10.9406C0.717226 10.6469 1.0621 10.5 1.46497 10.5H2.19746V1.5C2.19746 1.0875 2.3409 0.734375 2.62779 0.440625C2.91468 0.146875 3.25956 0 3.66243 0H11.7198C12.1226 0 12.4675 0.146875 12.7544 0.440625C13.0413 0.734375 13.1847 1.0875 13.1847 1.5V7.78125C12.9528 7.69375 12.7147 7.62813 12.4706 7.58438C12.2264 7.54063 11.9761 7.51875 11.7198 7.51875V1.5H3.66243V10.5H7.58123C7.49577 10.75 7.43168 11 7.38895 11.25C7.34622 11.5 7.32486 11.75 7.32486 12C7.32486 12.55 7.41947 13.0813 7.6087 13.5938C7.79792 14.1063 8.08176 14.575 8.46021 15H2.19746Z" fill="#FF4141"/>
</svg>
